<svg width="568" height="660" viewBox="0 0 568 660" fill="none" xmlns="http://www.w3.org/2000/svg">
<path d="M362.569 484.079C362.569 484.079 344.508 490.289 344.086 494.023C344.309 497.666 345.166 501.243 346.618 504.596L354.593 519.322C354.593 519.322 382.697 510.931 384.132 509.043C385.319 507.521 386.194 505.782 386.706 503.924C386.706 503.169 378.731 480.849 378.731 480.849L369.827 481.562" fill="white"/>
<path d="M411.266 531.782L428.229 531.572L411.983 548.522" fill="white"/>
<path d="M413.624 550.075L410.333 546.97L422.992 533.88H411.388V529.474H428.267C428.711 529.474 429.146 529.6 429.52 529.838C429.894 530.076 430.191 530.416 430.377 530.817C430.546 531.223 430.592 531.67 430.509 532.102C430.427 532.534 430.22 532.933 429.913 533.25L413.624 550.075Z" fill="#003F5D"/>
<path d="M401.391 521.083L424.178 520.663L410.421 533.334" fill="white"/>
<path d="M412.023 534.97L408.943 531.698L418.353 523.013L401.474 523.348V518.817L424.261 518.439C424.719 518.423 425.171 518.547 425.556 518.795C425.941 519.042 426.24 519.402 426.413 519.824C426.583 520.25 426.622 520.717 426.525 521.166C426.427 521.614 426.197 522.023 425.864 522.341L412.023 534.97Z" fill="#003F5D"/>
<path d="M277.414 597.989C270.186 589.232 264.843 579.093 261.716 568.201C304.885 572.732 326.406 552.803 352.315 548.607" fill="white"/>
<path d="M275.641 599.415C268.223 590.427 262.75 580.015 259.563 568.829L258.635 565.598L261.968 565.976C289.65 568.871 308.386 561.403 325.266 554.816C333.871 551.076 342.854 548.263 352.062 546.424L352.779 550.872C343.882 552.75 335.211 555.563 326.911 559.263C312.437 565.011 296.318 571.388 274.29 571.388C271.294 571.388 268.214 571.388 265.007 571.011C268.102 580.331 272.894 589.006 279.143 596.604L275.641 599.415Z" fill="#003F5D"/>
<path d="M376.658 514.204C384.184 512.791 391.966 514.405 398.295 518.693C404.625 522.98 408.984 529.589 410.416 537.07C414.051 555.96 410.971 575.519 401.703 592.4C392.435 609.281 377.555 622.435 359.609 629.612C341.662 636.789 321.766 637.543 303.322 631.744C284.879 625.945 269.036 613.954 258.503 597.822C264.967 604.633 273.053 609.714 282.014 612.596C290.975 615.478 300.523 616.068 309.774 614.311C324.335 611.162 337.077 602.469 345.271 590.095C353.466 577.721 356.462 562.648 353.618 548.104V548.104C352.157 540.588 353.76 532.802 358.073 526.46C362.386 520.119 369.056 515.74 376.616 514.288" fill="white"/>
<path d="M353.665 548.018C356.51 562.562 353.514 577.635 345.319 590.009C337.124 602.383 324.382 611.076 309.822 614.225C300.57 615.974 291.025 615.38 282.066 612.499C273.106 609.617 265.019 604.541 258.551 597.736C309.189 588.044 320.456 554.27 353.623 547.934" fill="white"/>
<path d="M299.523 617.583C291.555 617.577 283.671 615.961 276.352 612.83C269.032 609.7 262.429 605.121 256.945 599.374L260.237 596.311C266.458 602.822 274.22 607.68 282.814 610.443C291.409 613.206 300.562 613.785 309.44 612.128C323.423 609.099 335.662 600.757 343.545 588.882C351.429 577.007 354.333 562.539 351.638 548.565L355.858 547.726C358.795 562.9 355.661 578.615 347.123 591.528C343.008 597.986 337.617 603.547 331.278 607.874C324.939 612.201 317.782 615.204 310.242 616.702C306.694 617.369 303.092 617.706 299.481 617.708" fill="#003F5D"/>
<path d="M328.552 638.015C314.278 637.958 300.244 634.364 287.719 627.559C275.194 620.753 264.572 610.951 256.815 599.038L255 596.227L258.292 595.598C285.594 590.353 301.46 577.766 315.428 566.648C326.484 557.879 336.949 549.572 351.212 546.257C350.283 538.418 352.38 530.521 357.079 524.159C361.778 517.797 368.73 513.444 376.531 511.979C380.521 511.245 384.617 511.301 388.585 512.143C392.553 512.985 396.315 514.598 399.656 516.888C403.053 519.179 405.962 522.116 408.215 525.529C410.467 528.942 412.018 532.764 412.779 536.775C417.049 558.944 412.297 581.892 399.568 600.582C386.838 619.271 367.171 632.176 344.882 636.463C339.499 637.482 334.032 638.001 328.552 638.015V638.015ZM262.343 599.332C273.035 614.423 288.609 625.411 306.466 630.465C324.323 635.518 343.383 634.33 360.466 627.1C377.549 619.869 391.621 607.032 400.335 590.732C409.048 574.432 411.877 555.654 408.348 537.53C407.697 534.096 406.369 530.824 404.443 527.901C402.517 524.978 400.03 522.462 397.124 520.496C394.236 518.513 390.981 517.12 387.547 516.4C384.113 515.68 380.569 515.646 377.122 516.301C370.181 517.68 364.07 521.73 360.118 527.569C356.166 533.407 354.694 540.562 356.023 547.474L356.445 549.698L354.208 550.117C339.903 552.886 329.902 560.858 318.255 570.088C304.456 581.039 288.716 593.458 262.469 599.458" fill="#003F5D"/>
<path d="M358.432 631.972L353.959 631.511C355.451 617.158 361.478 603.645 371.176 592.911C381.134 581.871 394.489 574.421 409.154 571.723L409.998 576.128C396.534 578.745 384.265 585.578 374.986 595.626C365.708 605.674 359.907 618.41 358.432 631.972" fill="#003F5D"/>
<path d="M332.791 635.561L328.764 637.591L339.49 658.621L343.517 656.59L332.791 635.561Z" fill="#003F5D"/>
<path d="M357.261 632.481L353.234 634.512L365.339 658.234L369.365 656.203L357.261 632.481Z" fill="#003F5D"/>
<path d="M349.863 655.511H333.363V660H349.863V655.511Z" fill="#003F5D"/>
<path d="M375.899 655.511H359.399V660H375.899V655.511Z" fill="#003F5D"/>
<path d="M442.109 515.923C442.067 516.881 441.741 517.805 441.173 518.579C440.605 519.354 439.819 519.945 438.915 520.277C438.01 520.609 437.027 520.668 436.089 520.447C435.15 520.226 434.299 519.734 433.641 519.033C432.983 518.333 432.547 517.454 432.389 516.508C432.231 515.563 432.358 514.592 432.753 513.717C433.148 512.842 433.795 512.103 434.611 511.593C435.427 511.082 436.376 510.822 437.34 510.846C437.983 510.873 438.615 511.026 439.198 511.296C439.782 511.566 440.306 511.947 440.741 512.419C441.176 512.89 441.513 513.442 441.734 514.044C441.954 514.645 442.052 515.284 442.024 515.923" fill="#003F5D"/>
<path d="M442.025 515.924H439.577L440.421 498.092C440.422 497.866 440.49 497.645 440.618 497.459C440.746 497.272 440.927 497.127 441.138 497.043C441.331 496.933 441.549 496.875 441.771 496.875C441.994 496.875 442.212 496.933 442.404 497.043L450 503.379L448.481 505.225L442.615 500.442L442.025 515.924Z" fill="#003F5D"/>
<path d="M432.743 498.133C432.692 499.092 432.357 500.015 431.78 500.785C431.203 501.555 430.41 502.138 429.5 502.461C428.591 502.784 427.605 502.832 426.668 502.599C425.731 502.366 424.884 501.863 424.234 501.153C423.584 500.443 423.16 499.557 423.015 498.607C422.87 497.658 423.011 496.687 423.42 495.817C423.829 494.947 424.488 494.217 425.313 493.718C426.139 493.219 427.094 492.975 428.059 493.015C428.706 493.042 429.341 493.196 429.927 493.468C430.514 493.741 431.04 494.126 431.476 494.602C431.911 495.078 432.247 495.635 432.465 496.242C432.683 496.848 432.777 497.491 432.743 498.133" fill="#003F5D"/>
<path d="M432.66 498.091H430.213L431.057 480.218C431.063 479.993 431.134 479.774 431.261 479.589C431.388 479.403 431.566 479.257 431.774 479.169C431.967 479.058 432.185 479 432.407 479C432.629 479 432.848 479.058 433.04 479.169L440.762 485.462L439.243 487.35L433.378 482.567L432.66 498.091Z" fill="#003F5D"/>
<path d="M390.25 536.692C388.388 536.685 386.559 536.208 384.933 535.307L387.085 531.363C387.844 531.778 388.677 532.039 389.538 532.133C390.399 532.226 391.27 532.15 392.101 531.908C392.932 531.666 393.706 531.264 394.381 530.724C395.055 530.185 395.616 529.518 396.031 528.762L399.997 530.944C399.042 532.684 397.632 534.137 395.917 535.148C394.202 536.16 392.244 536.693 390.25 536.692" fill="#003F5D"/>
<path d="M396.321 504.593L385.35 507.194C380.143 510.348 374.729 513.151 369.146 515.586C364.462 517.138 349.819 519.781 349.819 519.781C349.819 519.781 340.831 525.907 345.346 529.095C349.861 532.284 364.462 533.291 372.31 530.144C379.278 527.066 386.068 523.607 392.65 519.781L400.372 509.502V504.719L396.321 504.593Z" fill="white"/>
<path d="M355.857 534.131H354.127C347.291 533.838 342.734 531.95 341.468 528.929C340.202 525.908 342.734 522.384 349.021 518.691C349.443 518.398 349.95 518.146 350.456 517.852L340.919 496.623V496.371C339.4 490.958 354.676 484.833 359.402 483.113C364.128 481.392 379.699 476.106 382.105 481.225L388.73 503.377L390.376 503.084C397.591 501.825 401.643 502.748 402.824 505.937C405.229 512.356 392.57 523.936 376.746 529.768C370.011 532.375 362.871 533.795 355.646 533.963L355.857 534.131ZM352.102 521.377C345.941 524.817 345.055 526.831 345.223 527.334C346.152 529.852 359.191 532.075 375.395 526.118C391.599 520.16 399.997 510.048 399.068 507.531C399.068 507.028 396.874 506.105 389.954 507.531L391.346 512.272C391.534 512.729 391.534 513.241 391.346 513.699C390.966 514.496 388.434 518.649 374.467 523.768C360.499 528.887 355.942 527.376 355.14 526.999C354.697 526.788 354.339 526.433 354.127 525.992L352.102 521.377ZM357.419 523.307C362.82 523.248 368.151 522.077 373.074 519.866C378.302 518.513 383.179 516.067 387.38 512.692L386.325 509.209C381.961 512.344 377.155 514.818 372.062 516.552C366.957 518.566 361.583 519.824 356.111 520.286L357.419 523.307ZM354.127 515.964C355.982 515.944 357.832 515.762 359.655 515.419C363.329 514.768 366.932 513.77 370.416 512.44C373.903 511.204 377.265 509.645 380.459 507.783C381.967 506.876 383.381 505.822 384.679 504.636L379.32 486.637C374.459 490.046 369.148 492.771 363.537 494.734C357.988 496.905 352.168 498.317 346.236 498.93L354.127 515.964ZM345.308 494.776C351.113 494.476 356.823 493.185 362.187 490.958C367.721 489.168 372.903 486.443 377.505 482.903C371.699 483.198 365.989 484.49 360.626 486.721C355.094 488.516 349.913 491.24 345.308 494.776Z" fill="#003F5D"/>
</svg>
